# xmcd
#
# Track frame offsets:
#	150
#	11970
#	22619
#	31998
#	41093
#	56250
#	74889
#	96633
#	115883
#	139985
#	155560
#	189470
#	204757
#	221372
#	234711
#	243955
#	250011
#	265372
#	281000
#	288896
#	294960
#	301379
#	312494
#	320233
#	329638
#	344667
#
# Disc length: 4795 seconds
#
# Revision: 2
# Processed by: cddbd v1.5.2PL0 Copyright (c) Steve Scherf et al.
# Submitted via: EasyCDDAExtractor 9.0.2.1
#
DISCID=9712b91a
DTITLE=Владимир Высоцкий - Платиновая коллекция. CD 1
DYEAR=2003
DGENRE=Blues
TTITLE0=Скалолазка
TTITLE1=Почему аборигены съели Кука
TTITLE2=О переселении душ
TTITLE3=На большом каретном
TTITLE4=Диалог у телевизора
TTITLE5=Лукоморье
TTITLE6=Купола Российские
TTITLE7=Баллада о правде и лжи
TTITLE8=Баллада о детстве
TTITLE9=Мы вращаем землю
TTITLE10=Банька по-белому
TTITLE11=Милицейский протокол
TTITLE12=Разбойничья песня
TTITLE13=Покойник
TTITLE14=Утренняя гимнастика
TTITLE15=Боксер
TTITLE16=Про прыгуна в высоту
TTITLE17=Канатоходец
TTITLE18=К вершине
TTITLE19=Беспокойство
TTITLE20=Братские могилы
TTITLE21=Ноль сем
TTITLE22=Она была в Париже
TTITLE23=Охота на кабанов
TTITLE24=Охота на волков
TTITLE25=Он не вернулся из боя
EXTD=
EXTT0=
EXTT1=
EXTT2=
EXTT3=
EXTT4=
EXTT5=
EXTT6=
EXTT7=
EXTT8=
EXTT9=
EXTT10=
EXTT11=
EXTT12=
EXTT13=
EXTT14=
EXTT15=
EXTT16=
EXTT17=
EXTT18=
EXTT19=
EXTT20=
EXTT21=
EXTT22=
EXTT23=
EXTT24=
EXTT25=
PLAYORDER=
